<svg id="SvgjsSvg1001" width="288" height="288" xmlns="http://www.w3.org/2000/svg" version="1.1" xmlns:xlink="http://www.w3.org/1999/xlink" xmlns:svgjs="http://svgjs.com/svgjs"><defs id="SvgjsDefs1002"></defs><g id="SvgjsG1008"><svg xmlns="http://www.w3.org/2000/svg" viewBox="0 0 52.875 60" width="288" height="288"><path fill="#e7d7c1" fill-rule="evenodd" d="M639.424 308.007a6 6 0 1 1 6.04-6 6.027 6.027 0 0 1-6.04 6zM610.375 298a2.073 2.073 0 0 0-.261 1.54 2.026 2.026 0 0 0 .926 1.26m48.9 28.92a1.891 1.891 0 0 0 1.026.28 1.917 1.917 0 0 0 .987-.26 1.96 1.96 0 0 0 1.027-1.74m-4.027-29.42a4.219 4.219 0 0 1-2.295.68 4.11 4.11 0 1 1 0-8.22 4.169 4.169 0 0 1 2.295.68v6.86zM653.4 321.2a1.986 1.986 0 0 0 .1-.6 4.119 4.119 0 0 1 4.127-4.1m0 0a4.2 4.2 0 0 1 1.328.22v7.76l-5.555-3.28" opacity=".2" transform="translate(-610.094 -270)" class="svgShape color5f7a82-0 selectable"></path><path fill="#e7d7c1" fill-rule="evenodd" d="M658.953 298.58a4.219 4.219 0 0 1-2.295.68 4.11 4.11 0 1 1 0-8.22 4.169 4.169 0 0 1 2.295.68v6.86zm0-18.98a49.138 49.138 0 0 0-38.814 21.92l-5.214-3.08c10.589-15.5 25.386-23.68 44.028-24.38v5.54zm-19.529 20.407a2 2 0 1 0 2.013 2 2.009 2.009 0 0 0-2.013-2z" opacity=".2" transform="translate(-610.094 -270)" class="svgShape color5f7a82-1 selectable"></path><path fill="#e7d7c1" fill-rule="evenodd" d="M662.376 270.58a2.336 2.336 0 0 0-1.43-.58c-21.722.18-38.733 9.6-50.571 28a2.073 2.073 0 0 0-.261 1.54 2.026 2.026 0 0 0 .926 1.26l8.7 5.14a.02.02 0 0 0 .02.02h.02l40.163 23.76a1.891 1.891 0 0 0 1.026.28 1.917 1.917 0 0 0 .987-.26 1.96 1.96 0 0 0 1.024-1.74v-56a2.029 2.029 0 0 0-.604-1.42zm-3.423 53.9-5.553-3.28a1.986 1.986 0 0 0 .1-.6 4.119 4.119 0 0 1 4.127-4.1 4.2 4.2 0 0 1 1.328.22v7.76zm0-25.9a4.219 4.219 0 0 1-2.295.68 4.11 4.11 0 1 1 0-8.22 4.169 4.169 0 0 1 2.295.68v6.86zm0-11.22a7.955 7.955 0 0 0-2.295-.32 8.11 8.11 0 1 0 0 16.22 7.333 7.333 0 0 0 2.295-.34v9.7a7.462 7.462 0 0 0-1.328-.12 8.186 8.186 0 0 0-7.993 6.46L623.6 303.58a45.034 45.034 0 0 1 35.351-19.96v3.74zm0-7.76a49.138 49.138 0 0 0-38.814 21.92l-5.214-3.08c10.589-15.5 25.386-23.68 44.028-24.38v5.54zm-19.529 28.407a6 6 0 1 1 6.04-6 6.027 6.027 0 0 1-6.04 6zm0-8a2 2 0 1 0 2.013 2 2.009 2.009 0 0 0-2.013-2z" transform="translate(-610.094 -270)" class="svgShape color5f7a82-2 selectable"></path></svg></g></svg>