<svg width="66" height="66" viewBox="0 0 66 66" fill="none" xmlns="http://www.w3.org/2000/svg">
<path d="M1 13.8H8.11111H65" stroke="#BF4342" stroke-width="2" stroke-linecap="round" stroke-linejoin="round"/>
<path d="M57.8886 13.8V58.6C57.8886 60.2974 57.1394 61.9253 55.8058 63.1255C54.4722 64.3257 52.6635 65 50.7775 65H15.222C13.336 65 11.5272 64.3257 10.1936 63.1255C8.86004 61.9253 8.11084 60.2974 8.11084 58.6V13.8M18.7775 13.8V7.4C18.7775 5.70261 19.5267 4.07475 20.8603 2.87452C22.1939 1.67428 24.0026 1 25.8886 1H40.1108C41.9968 1 43.8056 1.67428 45.1392 2.87452C46.4727 4.07475 47.2219 5.70261 47.2219 7.4V13.8" stroke="#BF4342" stroke-width="2" stroke-linecap="round" stroke-linejoin="round"/>
<path d="M25.8892 29.8V49" stroke="#BF4342" stroke-width="2" stroke-linecap="round" stroke-linejoin="round"/>
<path d="M40.1108 29.8V49" stroke="#BF4342" stroke-width="2" stroke-linecap="round" stroke-linejoin="round"/>
</svg>
